<svg width="100" height="100" viewBox="0 0 100 100" fill="none" xmlns="http://www.w3.org/2000/svg">
<path d="M95.8333 41.6667C98.1375 41.6667 100 39.8042 100 37.5V33.3333C100 21.8458 90.6542 12.5 79.1667 12.5H20.8333C9.34583 12.5 0 21.8458 0 33.3333V66.6667C0 78.1542 9.34583 87.5 20.8333 87.5H79.1667C90.6542 87.5 100 78.1542 100 66.6667V62.5C100 60.1958 98.1375 58.3333 95.8333 58.3333C91.2375 58.3333 87.5 54.5958 87.5 50C87.5 45.4042 91.2375 41.6667 95.8333 41.6667ZM91.6667 66.1375V66.6667C91.6667 73.5583 86.0583 79.1667 79.1667 79.1667H25C25 76.8625 23.1375 75 20.8333 75C18.7667 75 17.0583 76.5 16.725 78.4708C11.8458 76.7667 8.33333 72.1208 8.33333 66.6667V33.3333C8.33333 27.8792 11.8458 23.2333 16.725 21.5292C17.0542 23.5 18.7667 25 20.8333 25C23.1375 25 25 23.1375 25 20.8333H79.1667C86.0583 20.8333 91.6667 26.4417 91.6667 33.3333V33.8625C84.4833 35.7125 79.1667 42.25 79.1667 50C79.1667 57.75 84.4833 64.2875 91.6667 66.1375ZM70.8333 50C70.8333 52.3 68.9667 54.1667 66.6667 54.1667H60.4167L52.4542 64.2542C51.6417 65.7417 50.0833 66.6667 48.3917 66.6667H47.0583C45.4667 66.6667 44.375 65.0667 44.95 63.5833L48.6125 54.1667H43.1125C41.2708 54.1667 39.5208 53.3542 38.3333 51.9458L33.7667 46.5292C32.5292 44.3625 34.0917 41.6667 36.5875 41.6667C37.45 41.6667 38.275 42.0083 38.8833 42.6167L43.5083 45.8333H48.6792L44.9667 36.425C44.3792 34.9417 45.475 33.3333 47.0708 33.3333H48.3125C50.0083 33.3333 51.5667 34.2583 52.375 35.7458L60.4125 45.8333H66.6625C68.9625 45.8333 70.8333 47.7 70.8333 50ZM25 37.5V41.6667C25 43.9708 23.1375 45.8333 20.8333 45.8333C18.5292 45.8333 16.6667 43.9708 16.6667 41.6667V37.5C16.6667 35.1958 18.5292 33.3333 20.8333 33.3333C23.1375 33.3333 25 35.1958 25 37.5ZM25 58.3333V62.5C25 64.8042 23.1375 66.6667 20.8333 66.6667C18.5292 66.6667 16.6667 64.8042 16.6667 62.5V58.3333C16.6667 56.0292 18.5292 54.1667 20.8333 54.1667C23.1375 54.1667 25 56.0292 25 58.3333Z" fill="#C75454"/>
</svg>
