<svg width="100" height="100" viewBox="0 0 100 100" fill="none" xmlns="http://www.w3.org/2000/svg">
<g clip-path="url(#clip0_14_2667)">
<path d="M100 50C100 77.5833 77.5833 100 50 100C22.4167 100 0 77.5833 0 50C0 22.4167 22.4167 0 50 0C53.0417 0 56.125 0.291667 59.0833 0.833333C61.3333 1.25 62.8333 3.41667 62.4167 5.66667C62 7.91667 59.8333 9.41667 57.5833 9C55.125 8.54167 52.5417 8.33333 50 8.33333C27.0417 8.33333 8.33333 27.0417 8.33333 50C8.33333 72.9583 27.0417 91.6667 50 91.6667C72.9583 91.6667 91.6667 72.9583 91.6667 50C91.6667 47.4583 91.4167 44.9167 91 42.4167C90.5833 40.1667 92.0833 38 94.3333 37.5833C96.625 37.1667 98.75 38.6667 99.1667 40.9167C99.7083 43.875 100 46.9583 100 50ZM53.5833 25.25C55.875 25.5833 57.9583 24 58.2917 21.7083C58.625 19.4167 57.0417 17.3333 54.75 17C53.1667 16.7917 51.5833 16.6667 50 16.6667C31.625 16.6667 16.6667 31.625 16.6667 50C16.6667 68.375 31.625 83.3333 50 83.3333C68.375 83.3333 83.3333 68.375 83.3333 50C83.3333 48.4167 83.2083 46.8333 83 45.25C82.6667 42.9583 80.5833 41.375 78.2917 41.7083C76 42.0417 74.4167 44.125 74.75 46.4167C74.9167 47.5833 75 48.7917 75 50C75 63.7917 63.7917 75 50 75C36.2083 75 25 63.7917 25 50C25 36.2083 36.2083 25 50 25C51.2083 25 52.4167 25.0833 53.5833 25.25ZM44.4583 43.7917C46.1667 42.25 46.3333 39.625 44.7917 37.9167C43.25 36.2083 40.625 36.0417 38.9167 37.5833C35.375 40.75 33.375 45.2917 33.375 50C33.375 59.2083 40.8333 66.6667 50.0417 66.6667C54.7917 66.6667 59.2917 64.625 62.4583 61.125C64 59.4167 63.8333 56.7917 62.125 55.25C60.4167 53.7083 57.7917 53.875 56.25 55.5833C54.6667 57.3333 52.4167 58.375 50.0417 58.375C45.4583 58.375 41.7083 54.625 41.7083 50.0417C41.7083 47.6667 42.7083 45.4167 44.5 43.8333L44.4583 43.7917ZM51.25 42.875C49.625 44.5 49.625 47.125 51.25 48.75C52.0833 49.5833 53.125 49.9583 54.2083 49.9583C55.2917 49.9583 56.3333 49.5417 57.1667 48.75L76.7917 29.125H87.5833C88.7083 29.125 89.75 28.6667 90.5417 27.9167L98.875 19.5833C100.083 18.375 100.417 16.5833 99.7917 15.0417C99.1667 13.5 97.625 12.4583 95.9583 12.4583H87.625V4.16667C87.625 2.5 86.625 0.958333 85.0417 0.333333C83.4583 -0.333333 81.7083 0.0416667 80.5 1.25L72.1667 9.58333C71.375 10.375 70.9583 11.4167 70.9583 12.5417V23.3333L51.3333 42.9583L51.25 42.875Z" fill="#C75454"/>
</g>
<defs>
<clipPath id="clip0_14_2667">
<rect width="100" height="100" fill="white"/>
</clipPath>
</defs>
</svg>
