<svg width="33" height="32" viewBox="0 0 33 32" fill="none" xmlns="http://www.w3.org/2000/svg">
<g clip-path="url(#clip0_418_877)">
<path d="M16.9927 31.9999C16.8867 31.9999 16.7808 31.9999 16.6741 31.9994C14.1658 32.0055 11.8481 31.9418 9.59424 31.8046C7.52783 31.6789 5.6416 30.9648 4.13916 29.7397C2.68945 28.5575 1.69946 26.9591 1.19678 24.9894C0.759277 23.2746 0.736084 21.5912 0.713867 19.963C0.697754 18.7948 0.681152 17.4106 0.677734 16.0028C0.681152 14.5893 0.697754 13.205 0.713867 12.0368C0.736084 10.4088 0.759277 8.7255 1.19678 7.01041C1.69946 5.04068 2.68945 3.44229 4.13916 2.26016C5.6416 1.03507 7.52783 0.320955 9.59448 0.195223C11.8484 0.0582598 14.1665 -0.00570501 16.6802 0.000398507C19.1892 -0.00497259 21.5061 0.0582598 23.76 0.195223C25.8264 0.320955 27.7126 1.03507 29.2151 2.26016C30.665 3.44229 31.6548 5.04068 32.1575 7.01041C32.595 8.72525 32.6182 10.4088 32.6404 12.0368C32.6565 13.205 32.6733 14.5893 32.6765 15.997V16.0028C32.6733 17.4106 32.6565 18.7948 32.6404 19.963C32.6182 21.591 32.5952 23.2743 32.1575 24.9894C31.6548 26.9591 30.665 28.5575 29.2151 29.7397C27.7126 30.9648 25.8264 31.6789 23.76 31.8046C21.6016 31.9359 19.3843 31.9999 16.9927 31.9999ZM16.6741 29.4994C19.1416 29.5053 21.4072 29.443 23.6082 29.3092C25.1707 29.2143 26.5254 28.7072 27.6352 27.8022C28.6611 26.9655 29.3677 25.8112 29.7351 24.3712C30.0994 22.9438 30.1204 21.411 30.1406 19.9289C30.1565 18.7685 30.1731 17.394 30.1765 15.9999C30.1731 14.6056 30.1565 13.2314 30.1406 12.071C30.1204 10.5888 30.0994 9.05606 29.7351 7.62833C29.3677 6.18839 28.6611 5.03409 27.6352 4.19742C26.5254 3.29263 25.1707 2.78555 23.6082 2.69058C21.4072 2.55655 19.1416 2.49478 16.6799 2.50015C14.2129 2.49429 11.947 2.55655 9.74609 2.69058C8.18359 2.78555 6.82886 3.29263 5.71899 4.19742C4.69311 5.03409 3.98657 6.18839 3.61914 7.62833C3.25488 9.05606 3.23389 10.5885 3.21362 12.071C3.19775 13.2323 3.18115 14.6076 3.17773 16.0028C3.18115 17.392 3.19775 18.7675 3.21362 19.9289C3.23389 21.411 3.25488 22.9438 3.61914 24.3712C3.98657 25.8112 4.69311 26.9655 5.71899 27.8022C6.82886 28.7069 8.18359 29.214 9.74609 29.309C11.947 29.443 14.2134 29.5055 16.6741 29.4994ZM16.6145 23.8124C12.3069 23.8124 8.802 20.3078 8.802 15.9999C8.802 11.692 12.3069 8.18741 16.6145 8.18741C20.9224 8.18741 24.427 11.692 24.427 15.9999C24.427 20.3078 20.9224 23.8124 16.6145 23.8124ZM16.6145 10.6874C13.6853 10.6874 11.302 13.0707 11.302 15.9999C11.302 18.9291 13.6853 21.3124 16.6145 21.3124C19.5439 21.3124 21.927 18.9291 21.927 15.9999C21.927 13.0707 19.5439 10.6874 16.6145 10.6874ZM25.302 5.68741C24.2666 5.68741 23.427 6.52676 23.427 7.56241C23.427 8.59805 24.2666 9.43741 25.302 9.43741C26.3376 9.43741 27.177 8.59805 27.177 7.56241C27.177 6.52676 26.3376 5.68741 25.302 5.68741Z" fill="white"/>
</g>
<defs>
<clipPath id="clip0_418_877">
<rect width="32" height="32" fill="white" transform="translate(0.677734)"/>
</clipPath>
</defs>
</svg>
