<svg width="52" height="42" viewBox="0 0 52 42" fill="none" xmlns="http://www.w3.org/2000/svg">
<path d="M49.2604 7.4277C50.0135 7.04889 50.9464 7.29499 51.409 8.02128C51.9021 8.79577 51.6741 9.82339 50.8999 10.3169L29.167 24.1601C29.1479 24.1723 29.1282 24.1845 29.1086 24.1959C28.1794 24.7355 27.1319 25.0358 26.0603 25.0712L25.8459 25.0745C24.7714 25.0745 23.7145 24.8082 22.77 24.3006L22.5824 24.1959C22.563 24.1846 22.5437 24.1722 22.5247 24.1601L0.770772 10.3177L0.631917 10.2194C-0.0301065 9.69752 -0.202082 8.74866 0.260013 8.02209C0.722279 7.29564 1.65459 7.04934 2.4078 7.4277L2.55559 7.51134L24.2706 21.3286C24.7501 21.6031 25.2931 21.7484 25.8459 21.7484L26.0546 21.7411C26.5324 21.7096 26.9973 21.5697 27.4147 21.3319L49.1126 7.51215L49.2604 7.4277Z" fill="#C75454"/>
<path d="M48.3427 6.49695C48.3425 4.80045 47.0104 3.41509 45.335 3.33009L45.1717 3.32603H6.49695C4.74578 3.32621 3.32621 4.74578 3.32603 6.49695V35.503C3.32603 37.2544 4.74567 38.6738 6.49695 38.674H45.1717C46.9231 38.6739 48.3427 37.2544 48.3427 35.503V6.49695ZM51.6687 35.503C51.6687 39.0914 48.76 41.9999 45.1717 42H6.49695C2.90876 41.9998 8.57095e-06 39.0913 0 35.503V6.49695C0.000186843 2.90887 2.90887 0.000187054 6.49695 0H45.1717L45.5063 0.00812018C48.939 0.182291 51.6685 3.021 51.6687 6.49695V35.503Z" fill="#C75454"/>
</svg>
