<svg width="41" height="40" viewBox="0 0 41 40" fill="none" xmlns="http://www.w3.org/2000/svg">
<path d="M36.6774 20.48C36.9174 11.32 29.5574 3.87997 20.4374 3.99997C11.6774 4.11997 4.59743 11.36 4.67743 20.12C4.71743 26.4 8.39743 31.8 13.6774 34.4C13.9974 34.56 14.3574 34.32 14.3174 33.96C14.2774 32.92 14.3174 31.84 14.5174 30.96C14.7174 30.08 15.5174 26.72 16.0374 24.52C16.2774 23.44 16.3174 22.32 16.1174 21.24C16.0374 20.88 15.9974 20.48 15.9974 20C15.9974 17.64 17.3574 15.88 19.0774 15.88C20.5174 15.88 21.2374 16.96 21.2374 18.28C21.2374 19.72 20.3174 21.92 19.8374 23.96C19.4374 25.64 20.6774 27.04 22.3574 27.04C25.3974 27.04 27.7174 23.84 27.7174 19.24C27.7174 15.16 24.7974 12.32 20.5974 12.32C15.7574 12.32 12.9174 15.96 12.9174 19.72C12.9174 21.2 13.4774 22.76 14.1974 23.6C14.3174 23.76 14.3574 23.92 14.3174 24.08C14.1974 24.6 13.9174 25.76 13.8374 26C13.7574 26.32 13.5974 26.36 13.2774 26.24C11.1574 25.2 9.79743 22.08 9.79743 19.6C9.79743 14.24 13.6774 9.31997 21.0374 9.31997C26.9174 9.31997 31.5174 13.52 31.5174 19.16C31.5174 25.04 27.8374 29.72 22.6774 29.72C21.3174 29.72 20.0374 29.16 19.2774 28.4C19.0374 28.16 18.6374 28.28 18.5574 28.6C18.2774 29.6 17.8774 31.28 17.7174 31.8C17.4774 32.76 16.9574 33.88 16.3974 34.88C16.2374 35.12 16.3974 35.48 16.6774 35.52C17.9974 35.84 19.3574 36.04 20.7574 36C29.2374 35.92 36.4374 28.88 36.6774 20.48Z" fill="white"/>
</svg>
