<svg width="100" height="100" viewBox="0 0 100 100" fill="none" xmlns="http://www.w3.org/2000/svg">
<g clip-path="url(#clip0_14_2669)">
<path d="M100.008 54.1667C100.008 56.4708 98.1417 58.3333 95.8417 58.3333C88.8708 58.3333 82.1667 55.3917 77.4417 50.2625L65.7208 37.5167C63.4583 34.9958 62.3333 31.7917 62.5167 28.4625C62.5833 27.2542 62.875 26.1042 63.2667 24.9958H41.6667C34.775 24.9958 29.1667 19.3875 29.1667 12.4958C29.1667 5.60418 34.775 -0.00415039 41.6667 -0.00415039H82.8292C88.4208 -0.00415039 93.9417 1.87085 98.375 5.28335C100.2 6.68752 100.542 9.30418 99.1375 11.125C97.7333 12.9458 95.1208 13.2917 93.2958 11.8917C90.3125 9.59585 86.5958 8.33335 82.8333 8.33335H41.6667C39.3708 8.33335 37.5 10.2 37.5 12.5C37.5 14.8 39.3708 16.6667 41.6667 16.6667C41.6667 16.6667 75.1708 16.7125 75.2583 16.7208C78.0208 16.7792 80.775 17.7125 83.0083 19.5917L94.5542 30.6792C96.2125 32.275 96.2625 34.9125 94.6667 36.5709C93.075 38.2292 90.4375 38.2792 88.775 36.6833L77.4375 25.7833C73.6708 22.8208 68.5208 28.3958 71.8875 31.925L83.5708 44.625C86.7167 48.0417 91.1917 50.0042 95.8375 50.0042C98.1375 50.0042 100.004 51.8667 100.004 54.1709L100.008 54.1667ZM58.3417 75H36.7417C37.1333 73.8917 37.425 72.7417 37.4917 71.5333C37.675 68.2042 36.55 65.0042 34.2875 62.4792L22.5667 49.7333C17.8458 44.6083 11.1375 41.6625 4.16667 41.6625C1.86667 41.6625 0 43.525 0 45.8292C0 48.1333 1.86667 49.9958 4.16667 49.9958C8.8125 49.9958 13.2833 51.9583 16.4333 55.375L28.1167 68.075C31.4875 71.6042 26.3292 77.1708 22.5667 74.2167L11.2292 63.3167C9.575 61.7208 6.93333 61.775 5.3375 63.4292C3.74167 65.0875 3.79167 67.725 5.45 69.3208L16.9958 80.4083C19.2542 82.3042 22.0333 83.25 24.825 83.2917C24.8875 83.2917 58.3375 83.3292 58.3375 83.3292C60.6333 83.3292 62.5042 85.1958 62.5042 87.4958C62.5042 89.7958 60.6333 91.6625 58.3375 91.6625H17.1792C13.4167 91.6625 9.7 90.3958 6.71667 88.1042C4.89167 86.7 2.275 87.0458 0.875 88.8708C-0.529167 90.6958 -0.1875 93.3083 1.6375 94.7125C6.07083 98.1208 11.5917 100 17.1833 100H58.3417C65.2333 100 70.8417 94.3917 70.8417 87.5C70.8417 80.6083 65.2333 75 58.3417 75ZM47.3042 66.6792C48.8833 67.9583 51.1167 67.9583 52.7 66.6792C57.2375 63.0042 65.9125 55.1 65.9125 48.3334C65.9125 43.5 62.35 39.5834 57.9583 39.5834C53.5667 39.5834 50.0042 43.5 50.0042 48.3334C50.0042 43.5 46.4417 39.5834 42.05 39.5834C37.6583 39.5834 34.0958 43.5 34.0958 48.3334C34.0958 55.1 42.7708 63.0042 47.3083 66.6792H47.3042Z" fill="#C75454"/>
</g>
<defs>
<clipPath id="clip0_14_2669">
<rect width="100" height="100" fill="white"/>
</clipPath>
</defs>
</svg>
