<svg width="33" height="32" viewBox="0 0 33 32" fill="none" xmlns="http://www.w3.org/2000/svg">
<path d="M16.6777 0C7.84573 0 0.677734 7.168 0.677734 16C0.677734 24.832 7.84573 32 16.6777 32C25.5097 32 32.6777 24.832 32.6777 16C32.6777 7.168 25.5097 0 16.6777 0ZM24.1017 10.88C23.8617 13.408 22.8217 19.552 22.2937 22.384C22.0697 23.584 21.6217 23.984 21.2057 24.032C20.2777 24.112 19.5737 23.424 18.6777 22.832C17.2697 21.904 16.4697 21.328 15.1097 20.432C13.5257 19.392 14.5497 18.816 15.4617 17.888C15.7017 17.648 19.7977 13.92 19.8777 13.584C19.8888 13.5331 19.8874 13.4803 19.8734 13.4301C19.8595 13.3799 19.8335 13.3339 19.7977 13.296C19.7017 13.216 19.5737 13.248 19.4617 13.264C19.3177 13.296 17.0777 14.784 12.7097 17.728C12.0697 18.16 11.4937 18.384 10.9817 18.368C10.4057 18.352 9.31773 18.048 8.50173 17.776C7.49373 17.456 6.70973 17.28 6.77373 16.72C6.80573 16.432 7.20573 16.144 7.95773 15.84C12.6297 13.808 15.7337 12.464 17.2857 11.824C21.7337 9.968 22.6457 9.648 23.2537 9.648C23.3817 9.648 23.6857 9.68 23.8777 9.84C24.0377 9.968 24.0857 10.144 24.1017 10.272C24.0857 10.368 24.1177 10.656 24.1017 10.88Z" fill="white"/>
</svg>
