<svg width="100" height="100" viewBox="0 0 100 100" fill="none" xmlns="http://www.w3.org/2000/svg">
<path d="M66.6625 64.5833C65.8792 64.5833 65.0833 64.3625 64.3792 63.9L47.7125 52.95C46.5417 52.175 45.8333 50.8708 45.8333 49.4667V29.1667C45.8333 26.8625 47.6958 25 50 25C52.3042 25 54.1667 26.8625 54.1667 29.1667V47.2208L68.9542 56.9333C70.8792 58.2 71.4125 60.7833 70.15 62.7042C69.35 63.925 68.0167 64.5833 66.6625 64.5833ZM52.975 91.5625C51.9917 91.6333 51 91.6667 50 91.6667C27.025 91.6667 8.33333 72.975 8.33333 50C8.33333 27.025 27.025 8.33333 50 8.33333C63.1292 8.33333 75.4667 14.6333 83.2833 25H70.8333C68.5292 25 66.6667 26.8625 66.6667 29.1667C66.6667 31.4708 68.5292 33.3333 70.8333 33.3333H87.5C92.0958 33.3333 95.8333 29.5958 95.8333 25V8.33333C95.8333 6.02917 93.9708 4.16667 91.6667 4.16667C89.3625 4.16667 87.5 6.02917 87.5 8.33333V17.1C78.0958 6.42917 64.4708 0 50 0C22.4292 0 0 22.4292 0 50C0 77.5708 22.4292 100 50 100C51.2 100 52.3875 99.9542 53.5667 99.8708C55.8625 99.7083 57.5917 97.7125 57.425 95.4208C57.2625 93.1292 55.2917 91.3583 52.975 91.5625ZM95.8333 45.8333C93.5292 45.8333 91.6667 47.6958 91.6667 50C91.6667 51.8958 91.5375 53.8042 91.2833 55.6667C90.975 57.95 92.575 60.05 94.85 60.3583C95.0417 60.3833 95.2292 60.3958 95.4167 60.3958C97.4708 60.3958 99.2583 58.8792 99.5417 56.7917C99.8417 54.5583 99.9958 52.2708 99.9958 50C99.9958 47.6958 98.1375 45.8333 95.8333 45.8333ZM92.2375 68.3167C90.2208 67.2 87.6833 67.95 86.5833 69.9667C85.6792 71.6167 84.65 73.225 83.5208 74.75C82.1542 76.6 82.55 79.2083 84.3958 80.5792C85.1458 81.1292 86.0125 81.3917 86.8708 81.3917C88.15 81.3917 89.4083 80.8042 90.2292 79.7042C91.575 77.875 92.8125 75.9458 93.8958 73.9667C95.0042 71.95 94.2625 69.4167 92.2458 68.3125L92.2375 68.3167ZM72.525 85.0667C70.9292 86.0917 69.2625 87.0125 67.5625 87.8C65.475 88.7708 64.5667 91.2458 65.5375 93.3333C66.2458 94.8542 67.7458 95.7458 69.3208 95.7458C69.9083 95.7458 70.5042 95.625 71.0708 95.3583C73.1167 94.4042 75.125 93.3042 77.0375 92.0708C78.975 90.825 79.5333 88.25 78.2875 86.3125C77.0417 84.3833 74.4625 83.825 72.5292 85.0625L72.525 85.0667Z" fill="#C75454"/>
</svg>
