<svg width="123" height="108" viewBox="0 0 123 108" fill="none" xmlns="http://www.w3.org/2000/svg">
<rect y="31.7461" width="91.3072" height="70.9261" rx="6" fill="url(#paint0_linear_14_3220)"/>
<mask id="mask0_14_3220" style="mask-type:alpha" maskUnits="userSpaceOnUse" x="0" y="31" width="92" height="72">
<rect y="31.7461" width="91.3072" height="70.9261" rx="6" fill="url(#paint1_linear_14_3220)"/>
</mask>
<g mask="url(#mask0_14_3220)">
<path d="M20.2724 70.4986C22.0168 70.019 24.0509 70.2666 25.5312 71.9344C26.7562 73.3146 27.1694 75.2258 27.281 77.0254C27.3915 78.8087 27.2317 80.9722 26.8226 83.4988L26.7375 84.0091C26.3037 86.5347 26.1274 88.474 26.1395 89.9173C26.1488 91.0181 26.268 91.6925 26.3805 92.072C26.552 92.0187 26.7906 91.9283 27.1047 91.7734C28.7861 90.944 31.1845 89.0145 34.1577 86.0454C37.068 83.1393 40.3213 79.4516 43.7051 75.3567L48.3137 79.1648C44.8701 83.3319 41.4815 87.1807 38.3821 90.2757C35.3458 93.3077 32.3668 95.8439 29.7496 97.1349C28.4545 97.7737 26.869 98.3014 25.2283 98.0757C23.3437 97.8164 21.9506 96.6514 21.1485 95.0509C20.4274 93.612 20.1771 91.8414 20.1613 89.9675C20.1451 88.0418 20.3775 85.7218 20.8455 82.9971L20.9223 82.5355C21.2892 80.2664 21.3873 78.5813 21.3138 77.3952C21.2926 77.0526 21.2586 76.7798 21.2217 76.5653C20.8795 76.7709 20.4253 77.0949 19.8609 77.5924C15.6425 81.3103 9.31703 90.9953 4.02593 104.441L-1.5371 102.252C3.87465 88.4997 10.6264 77.762 15.9077 73.1072C17.2296 71.9422 18.7122 70.9277 20.2724 70.4986Z" fill="#F89C1D"/>
</g>
<path fill-rule="evenodd" clip-rule="evenodd" d="M65.2193 31.7461V19.365C65.2193 14.9467 61.6376 11.365 57.2193 11.365H33.8159C29.3976 11.365 25.8159 14.9467 25.8159 19.365V31.7461H31.7944V20.3434C31.7944 18.6866 33.1375 17.3434 34.7944 17.3434H56.2409C57.8977 17.3434 59.2409 18.6866 59.2409 20.3434V31.7461H65.2193Z" fill="#A21D1D"/>
<path d="M82.5589 93.2563L88.0799 87.7445L78.3264 53.1964L92.576 38.9707C92.576 38.9707 100.858 30.7032 96.9858 26.8249C93.1113 22.944 84.8299 31.2115 84.8299 31.2115L70.5802 45.4372L36.0513 35.6284L30.5303 41.1401L59.5383 56.4606L49.6364 66.3459L37.8848 67.0022L32.3638 72.514L46.1928 77.5271L51.1854 91.3672L56.7064 85.8555L57.3826 74.1051L67.2844 64.2198L82.5589 93.2563Z" fill="#F89C1D"/>
<defs>
<linearGradient id="paint0_linear_14_3220" x1="45.6536" y1="31.7461" x2="45.6536" y2="102.672" gradientUnits="userSpaceOnUse">
<stop stop-color="#C75454"/>
<stop offset="1" stop-color="#A21D1D"/>
</linearGradient>
<linearGradient id="paint1_linear_14_3220" x1="45.6536" y1="31.7461" x2="45.6536" y2="102.672" gradientUnits="userSpaceOnUse">
<stop stop-color="#46BBA5"/>
<stop offset="1" stop-color="#20554B"/>
</linearGradient>
</defs>
</svg>
