<svg width="167" height="70" viewBox="0 0 167 70" fill="none" xmlns="http://www.w3.org/2000/svg">
<path d="M112.409 35.9803C102.587 35.9803 94.7032 28.263 94.7032 18.264C94.7032 8.26506 102.587 0.547729 112.409 0.547729C122.231 0.547729 130.115 8.26506 130.115 18.264C130.115 28.263 122.231 35.9803 112.409 35.9803ZM112.409 26.1827C116.752 26.1827 120.093 23.0286 120.093 18.264C120.093 13.4994 116.752 10.3454 112.409 10.3454C108.066 10.3454 104.726 13.4994 104.726 18.264C104.726 23.0286 108.066 26.1827 112.409 26.1827Z" fill="white"/>
<path d="M155.793 1.48723H166.885L154.524 35.0408H143.165L130.804 1.48723H141.896L148.845 22.7602L155.793 1.48723Z" fill="white"/>
<path fill-rule="evenodd" clip-rule="evenodd" d="M37.4167 0.547729C45.1005 0.547729 50.1117 6.05052 50.1117 14.4389V14.9747C50.1117 16.5251 52.1164 17.142 52.988 15.8599C57.1183 10.0171 63.1767 0.547729 72.9986 0.547729C82.8205 0.547729 90.7047 8.26506 90.7047 18.264H80.6824C80.6824 13.4994 77.3416 10.3454 72.9986 10.3454C69.9638 10.3454 67.4184 11.8854 66.1603 14.4389L57.622 25.6314L51.7945 33.2979C50.9597 34.396 49.6597 35.0408 48.2803 35.0408H40.0893V15.3113C40.0893 11.956 38.4858 9.80852 35.2786 9.80852C31.9378 9.80852 30.067 12.1573 30.067 16.1166V35.0408H20.0447V15.3113C20.0447 11.956 18.4411 9.80852 15.2339 9.80852C11.8932 9.80852 10.0223 12.1573 10.0223 16.1166V35.0408H0V1.48723H10.0223V4.57416C11.5591 2.29251 14.499 0.547729 18.9756 0.547729C22.9177 0.547729 25.8576 2.1583 27.7285 4.9768C29.5993 2.29251 32.6728 0.547729 37.4167 0.547729Z" fill="white"/>
<path d="M72.9986 35.9803C82.8205 35.9803 90.7047 28.263 90.7047 18.264H80.6824C80.6824 23.0286 77.3416 26.1827 72.9986 26.1827C68.6556 26.1827 65.3148 23.0286 65.3148 18.264C65.3148 16.8288 65.6179 15.5397 66.1603 14.4389L57.622 25.6314C60.6277 31.1004 66.2897 35.9803 72.9986 35.9803Z" fill="url(#paint0_linear_14_3227)"/>
<path d="M51.6417 51.9084V54.1014H46.7048V64.4838C46.7048 65.4204 46.8877 66.0943 47.2534 66.5054C47.6191 66.8938 48.1676 67.0994 48.899 67.1222C49.6304 67.1222 50.5447 67.0994 51.6417 67.0537V69.0411C49.1962 69.4066 47.3791 69.2352 46.1906 68.5271C45.0249 67.7961 44.4421 66.4483 44.4421 64.4838V54.1014H40.8423V51.9084H44.4421V47.7965L46.7048 47.1112V51.9084H51.6417Z" fill="white"/>
<path d="M57.6757 51.9084V54.7524C58.7271 52.6736 60.5327 51.6343 63.0926 51.6343V53.8272C61.447 53.8272 60.1327 54.307 59.1499 55.2664C58.1671 56.203 57.6757 57.6193 57.6757 59.5153V69.0411H55.413V51.9084H57.6757Z" fill="white"/>
<path d="M79.8979 55.2664V51.9084H82.1607V69.0411H79.8979V65.6831C78.3208 68.1959 76.0124 69.4523 72.9725 69.4523C70.527 69.4523 68.4356 68.5842 66.6986 66.8481C64.9844 65.112 64.1273 62.9875 64.1273 60.4747C64.1273 57.9619 64.9844 55.8375 66.6986 54.1014C68.4356 52.3653 70.527 51.4972 72.9725 51.4972C76.0124 51.4972 78.3208 52.7536 79.8979 55.2664ZM68.3442 65.3062C69.647 66.6082 71.2469 67.2593 73.144 67.2593C75.041 67.2593 76.6409 66.6082 77.9437 65.3062C79.2465 63.9584 79.8979 62.3479 79.8979 60.4747C79.8979 58.5787 79.2465 56.9797 77.9437 55.6776C76.6409 54.3526 75.041 53.6902 73.144 53.6902C71.2469 53.6902 69.647 54.3526 68.3442 55.6776C67.0414 56.9797 66.39 58.5787 66.39 60.4747C66.39 62.3479 67.0414 63.9584 68.3442 65.3062Z" fill="white"/>
<path d="M93.2941 66.6768L99.2938 51.9084H101.694L94.6655 69.0411H91.9228L84.8945 51.9084H87.2944L93.2941 66.6768Z" fill="white"/>
<path d="M111.678 51.4972C114.238 51.4972 116.284 52.3995 117.815 54.2042C119.392 55.986 120.181 58.099 120.181 60.5433C120.181 60.6575 120.158 61.0116 120.112 61.6055H105.062C105.29 63.3188 106.021 64.6894 107.256 65.7173C108.49 66.7453 110.033 67.2593 111.884 67.2593C114.49 67.2593 116.33 66.2884 117.404 64.3467L119.392 65.5117C118.638 66.7453 117.598 67.7162 116.272 68.4243C114.97 69.1096 113.495 69.4523 111.85 69.4523C109.153 69.4523 106.959 68.607 105.267 66.9166C103.576 65.2262 102.73 63.0789 102.73 60.4747C102.73 57.8934 103.564 55.7575 105.233 54.0671C106.901 52.3538 109.05 51.4972 111.678 51.4972ZM111.678 53.6902C109.896 53.6902 108.399 54.2156 107.187 55.2664C105.999 56.3172 105.29 57.6992 105.062 59.4125H117.849C117.598 57.585 116.901 56.1801 115.758 55.1979C114.57 54.1927 113.21 53.6902 111.678 53.6902Z" fill="white"/>
<path d="M126.043 69.0411H123.78V44.0273H126.043V69.0411Z" fill="white"/>
<defs>
<linearGradient id="paint0_linear_14_3227" x1="83.3072" y1="18.4114" x2="64.1004" y2="25.1698" gradientUnits="userSpaceOnUse">
<stop stop-color="white"/>
<stop offset="1" stop-color="#EB9E1F"/>
</linearGradient>
</defs>
</svg>
