<svg width="1772" height="325" viewBox="0 0 1772 325" fill="none" xmlns="http://www.w3.org/2000/svg">
<path d="M1632.98 81.6085C1634.42 80.79 1634.93 78.9587 1634.11 77.5181C1633.29 76.0775 1631.46 75.5731 1630.02 76.3915L1632.98 81.6085ZM1076.48 173.39C1075.43 172.113 1073.54 171.934 1072.26 172.99C1070.98 174.046 1070.8 175.937 1071.86 177.214L1076.48 173.39ZM1366.96 229.1L1368.44 231.71L1366.96 229.1ZM783.286 120.522L784.744 123.144L783.286 120.522ZM1071.86 177.214C1072.92 178.491 1074.81 178.67 1076.08 177.614C1077.36 176.558 1077.54 174.667 1076.48 173.39L1071.86 177.214ZM343.311 184.099C342.528 182.639 340.71 182.09 339.25 182.873C337.79 183.657 337.241 185.475 338.024 186.935L343.311 184.099ZM553.845 248.084L552.387 245.462L553.845 248.084ZM132.48 120.293L131.118 117.62L132.48 120.293ZM338.024 186.935C338.808 188.395 340.626 188.944 342.086 188.161C343.546 187.377 344.095 185.559 343.311 184.099L338.024 186.935ZM-118.922 251.733C-117.446 250.981 -116.859 249.174 -117.611 247.698C-118.363 246.222 -120.169 245.635 -121.646 246.387L-118.922 251.733ZM-112.93 241.946C-114.406 242.699 -114.993 244.505 -114.241 245.981C-113.489 247.458 -111.683 248.045 -110.206 247.293L-112.93 241.946ZM-92.7742 238.412C-91.2979 237.66 -90.7108 235.854 -91.4629 234.377C-92.215 232.901 -94.0215 232.314 -95.4978 233.066L-92.7742 238.412ZM-86.7818 228.626C-88.2581 229.378 -88.8452 231.184 -88.0931 232.661C-87.341 234.137 -85.5346 234.724 -84.0582 233.972L-86.7818 228.626ZM-66.6262 225.092C-65.1499 224.339 -64.5628 222.533 -65.3149 221.057C-66.067 219.58 -67.8735 218.993 -69.3498 219.745L-66.6262 225.092ZM-60.6338 215.305C-62.1101 216.057 -62.6972 217.864 -61.9451 219.34C-61.193 220.816 -59.3866 221.403 -57.9102 220.651L-60.6338 215.305ZM-40.4782 211.771C-39.0019 211.019 -38.4148 209.212 -39.1669 207.736C-39.919 206.26 -41.7255 205.673 -43.2018 206.425L-40.4782 211.771ZM-34.4858 201.984C-35.9621 202.736 -36.5492 204.543 -35.7971 206.019C-35.0451 207.496 -33.2386 208.083 -31.7623 207.331L-34.4858 201.984ZM-14.3303 198.45C-12.8539 197.698 -12.2668 195.892 -13.0189 194.415C-13.771 192.939 -15.5775 192.352 -17.0538 193.104L-14.3303 198.45ZM-8.33781 188.664C-9.81414 189.416 -10.4012 191.222 -9.64915 192.699C-8.89707 194.175 -7.09058 194.762 -5.61427 194.01L-8.33781 188.664ZM11.8177 185.13C13.2941 184.377 13.8812 182.571 13.1291 181.095C12.377 179.618 10.5705 179.031 9.09418 179.783L11.8177 185.13ZM17.8102 175.343C16.3338 176.095 15.7467 177.902 16.4988 179.378C17.2509 180.854 19.0574 181.441 20.5337 180.689L17.8102 175.343ZM37.9657 171.809C39.442 171.057 40.0291 169.25 39.2771 167.774C38.525 166.298 36.7185 165.711 35.2422 166.463L37.9657 171.809ZM43.9582 162.022C42.4818 162.774 41.8947 164.581 42.6468 166.057C43.3989 167.534 45.2054 168.121 46.6817 167.369L43.9582 162.022ZM64.1137 158.488C65.59 157.736 66.1772 155.93 65.4251 154.453C64.673 152.977 62.8665 152.39 61.3902 153.142L64.1137 158.488ZM70.1062 148.702C68.6298 149.454 68.0427 151.26 68.7948 152.737C69.5469 154.213 71.3534 154.8 72.8297 154.048L70.1062 148.702ZM90.2617 145.167C91.738 144.415 92.3251 142.609 91.573 141.133C90.821 139.656 89.0145 139.069 87.5381 139.821L90.2617 145.167ZM96.2542 135.381C94.7778 136.133 94.1907 137.94 94.9428 139.416C95.6949 140.892 97.5014 141.479 98.9777 140.727L96.2542 135.381ZM116.41 131.847C117.886 131.095 118.473 129.288 117.721 127.812C116.969 126.336 115.162 125.748 113.686 126.501L116.41 131.847ZM122.402 122.06C120.926 122.812 120.339 124.619 121.091 126.095C121.843 127.572 123.649 128.159 125.126 127.407L122.402 122.06ZM142.787 118.762C144.308 118.105 145.009 116.34 144.352 114.819C143.696 113.298 141.93 112.597 140.409 113.253L142.787 118.762ZM149.956 109.492C148.395 110.049 147.582 111.766 148.14 113.326C148.697 114.886 150.414 115.699 151.974 115.142L149.956 109.492ZM170.945 109.72C172.564 109.369 173.592 107.772 173.241 106.152C172.89 104.533 171.293 103.505 169.674 103.856L170.945 109.72ZM179.77 102.009C178.131 102.254 177.002 103.781 177.247 105.42C177.492 107.058 179.019 108.188 180.657 107.943L179.77 102.009ZM200.32 106.299C201.977 106.268 203.295 104.901 203.264 103.244C203.233 101.587 201.866 100.269 200.209 100.3L200.32 106.299ZM210.47 100.442C208.815 100.366 207.411 101.646 207.334 103.301C207.258 104.956 208.537 106.359 210.193 106.436L210.47 100.442ZM229.808 108.617C231.439 108.906 232.996 107.817 233.284 106.186C233.573 104.554 232.485 102.998 230.853 102.709L229.808 108.617ZM240.893 104.82C239.284 104.427 237.66 105.414 237.267 107.023C236.874 108.633 237.861 110.256 239.47 110.649L240.893 104.82ZM258.306 116.55C259.852 117.146 261.588 116.376 262.184 114.829C262.78 113.283 262.009 111.547 260.463 110.951L258.306 116.55ZM269.913 114.946C268.409 114.252 266.626 114.91 265.933 116.414C265.239 117.919 265.896 119.701 267.401 120.395L269.913 114.946ZM284.754 129.796C286.157 130.677 288.009 130.254 288.89 128.851C289.772 127.449 289.349 125.597 287.946 124.715L284.754 129.796ZM296.454 130.453C295.111 129.482 293.235 129.785 292.265 131.127C291.295 132.47 291.597 134.346 292.94 135.316L296.454 130.453ZM308.15 147.886C309.355 149.022 311.254 148.965 312.39 147.759C313.526 146.553 313.47 144.655 312.264 143.518L308.15 147.886ZM319.501 150.796C318.372 149.584 316.474 149.517 315.261 150.646C314.049 151.776 313.982 153.674 315.112 154.886L319.501 150.796ZM327.598 170.163C328.561 171.511 330.435 171.823 331.783 170.86C333.131 169.897 333.443 168.023 332.479 166.675L327.598 170.163ZM338.173 175.211C337.298 173.804 335.449 173.372 334.041 174.247C332.634 175.122 332.203 176.971 333.077 178.379L338.173 175.211ZM343.289 196.027C344.166 197.433 346.017 197.862 347.422 196.986C348.828 196.109 349.258 194.259 348.381 192.853L343.289 196.027ZM354.007 201.248C353.04 199.903 351.165 199.597 349.82 200.564C348.474 201.531 348.168 203.406 349.135 204.751L354.007 201.248ZM362.488 220.942C363.625 222.148 365.523 222.203 366.729 221.067C367.934 219.93 367.99 218.031 366.853 216.826L362.488 220.942ZM374.026 223.942C372.812 222.815 370.914 222.886 369.787 224.1C368.66 225.315 368.731 227.213 369.945 228.34L374.026 223.942ZM386.246 241.563C387.599 242.519 389.471 242.197 390.427 240.844C391.383 239.491 391.061 237.619 389.708 236.663L386.246 241.563ZM398.15 242.217C396.736 241.352 394.889 241.797 394.025 243.211C393.161 244.625 393.606 246.471 395.02 247.335L398.15 242.217ZM413.609 257.079C415.124 257.75 416.896 257.066 417.567 255.551C418.238 254.036 417.553 252.264 416.038 251.593L413.609 257.079ZM425.408 255.379C423.852 254.809 422.129 255.608 421.559 257.164C420.989 258.72 421.788 260.443 423.344 261.013L425.408 255.379ZM443.482 266.923C445.099 267.284 446.702 266.267 447.064 264.65C447.425 263.033 446.407 261.429 444.79 261.068L443.482 266.923ZM454.719 262.946C453.082 262.692 451.549 263.813 451.294 265.45C451.04 267.087 452.161 268.62 453.798 268.875L454.719 262.946ZM474.705 270.723C476.362 270.76 477.734 269.447 477.771 267.79C477.808 266.134 476.495 264.761 474.838 264.725L474.705 270.723ZM484.942 264.614C483.287 264.687 482.004 266.088 482.077 267.743C482.15 269.398 483.551 270.681 485.207 270.608L484.942 264.614ZM506.068 268.292C507.699 268 508.785 266.441 508.493 264.81C508.201 263.18 506.642 262.094 505.011 262.386L506.068 268.292ZM514.893 260.275C513.285 260.675 512.305 262.303 512.705 263.911C513.105 265.519 514.733 266.498 516.341 266.098L514.893 260.275ZM536.326 259.691C537.867 259.082 538.622 257.339 538.013 255.798C537.404 254.258 535.661 253.502 534.12 254.112L536.326 259.691ZM543.391 250.088C541.893 250.797 541.254 252.586 541.964 254.084C542.673 255.581 544.461 256.22 545.959 255.511L543.391 250.088ZM563.8 245.982C565.249 245.177 565.77 243.35 564.965 241.902C564.16 240.454 562.333 239.933 560.885 240.738L563.8 245.982ZM569.383 236.013C567.935 236.818 567.413 238.645 568.219 240.093C569.024 241.541 570.85 242.062 572.298 241.257L569.383 236.013ZM589.294 231.808C590.742 231.003 591.263 229.177 590.458 227.728C589.653 226.28 587.827 225.759 586.378 226.564L589.294 231.808ZM594.876 221.84C593.428 222.645 592.907 224.471 593.712 225.919C594.517 227.368 596.344 227.889 597.792 227.084L594.876 221.84ZM614.788 217.635C616.236 216.829 616.757 215.003 615.952 213.555C615.147 212.107 613.32 211.585 611.872 212.391L614.788 217.635ZM620.37 207.666C618.922 208.471 618.4 210.298 619.206 211.746C620.011 213.194 621.837 213.715 623.285 212.91L620.37 207.666ZM640.281 203.461C641.729 202.656 642.25 200.829 641.445 199.381C640.64 197.933 638.814 197.412 637.365 198.217L640.281 203.461ZM645.863 193.492C644.415 194.297 643.894 196.124 644.699 197.572C645.504 199.02 647.331 199.542 648.779 198.736L645.863 193.492ZM665.775 189.287C667.223 188.482 667.744 186.656 666.939 185.208C666.134 183.759 664.307 183.238 662.859 184.043L665.775 189.287ZM671.357 179.319C669.909 180.124 669.388 181.95 670.193 183.399C670.998 184.847 672.824 185.368 674.272 184.563L671.357 179.319ZM691.268 175.114C692.716 174.309 693.237 172.482 692.432 171.034C691.627 169.586 689.801 169.065 688.352 169.87L691.268 175.114ZM696.85 165.145C695.402 165.95 694.881 167.777 695.686 169.225C696.491 170.673 698.318 171.194 699.766 170.389L696.85 165.145ZM716.762 160.94C718.21 160.135 718.731 158.308 717.926 156.86C717.121 155.412 715.294 154.891 713.846 155.696L716.762 160.94ZM722.344 150.972C720.896 151.777 720.375 153.603 721.18 155.051C721.985 156.499 723.811 157.021 725.259 156.216L722.344 150.972ZM742.255 146.766C743.703 145.961 744.224 144.135 743.419 142.687C742.614 141.239 740.788 140.717 739.34 141.522L742.255 146.766ZM747.837 136.798C746.389 137.603 745.868 139.43 746.673 140.878C747.478 142.326 749.305 142.847 750.753 142.042L747.837 136.798ZM767.749 132.593C769.197 131.788 769.718 129.961 768.913 128.513C768.108 127.065 766.281 126.544 764.833 127.349L767.749 132.593ZM773.331 122.624C771.883 123.429 771.362 125.256 772.167 126.704C772.972 128.152 774.798 128.673 776.246 127.868L773.331 122.624ZM793.238 118.65C794.718 117.906 795.315 116.103 794.571 114.622C793.827 113.142 792.023 112.545 790.543 113.289L793.238 118.65ZM799.442 109.047C797.932 109.728 797.26 111.505 797.941 113.015C798.623 114.525 800.4 115.197 801.91 114.515L799.442 109.047ZM819.733 107.356C821.295 106.804 822.114 105.09 821.561 103.528C821.009 101.966 819.295 101.147 817.733 101.7L819.733 107.356ZM827.094 98.6104C825.51 99.0963 824.62 100.774 825.106 102.358C825.592 103.942 827.27 104.832 828.854 104.347L827.094 98.6104ZM847.435 99.4947C849.054 99.1441 850.083 97.5472 849.732 95.9279C849.382 94.3085 847.785 93.28 846.165 93.6305L847.435 99.4947ZM855.842 91.7488C854.209 92.0307 853.114 93.5828 853.396 95.2155C853.677 96.8482 855.23 97.9433 856.862 97.6614L855.842 91.7488ZM875.907 95.1952C877.558 95.0518 878.78 93.5975 878.637 91.9469C878.493 90.2962 877.039 89.0743 875.388 89.2177L875.907 95.1952ZM885.224 88.5717C883.569 88.6455 882.287 90.0471 882.361 91.7023C882.434 93.3575 883.836 94.6395 885.491 94.5658L885.224 88.5717ZM904.696 94.5174C906.352 94.5828 907.747 93.2937 907.812 91.6382C907.878 89.9826 906.589 88.5875 904.933 88.5221L904.696 94.5174ZM914.772 89.1176C913.12 88.9828 911.672 90.2123 911.538 91.8637C911.403 93.515 912.632 94.963 914.284 95.0977L914.772 89.1176ZM933.344 97.4601C934.978 97.7326 936.524 96.6286 936.796 94.9943C937.069 93.36 935.965 91.8142 934.33 91.5418L933.344 97.4601ZM944.017 93.3659C942.395 93.0252 940.804 94.0635 940.464 95.685C940.123 97.3064 941.161 98.897 942.783 99.2377L944.017 93.3659ZM961.397 103.97C962.984 104.445 964.656 103.544 965.131 101.956C965.606 100.369 964.705 98.6973 963.117 98.2221L961.397 103.97ZM972.499 101.246C970.933 100.705 969.224 101.536 968.683 103.101C968.142 104.667 968.972 106.376 970.538 106.917L972.499 101.246ZM988.41 113.948C989.925 114.618 991.697 113.934 992.368 112.419C993.039 110.904 992.354 109.132 990.839 108.461L988.41 113.948ZM999.766 112.641C998.281 111.907 996.482 112.516 995.748 114.001C995.014 115.487 995.623 117.286 997.109 118.02L999.766 112.641ZM1013.95 127.245C1015.37 128.101 1017.21 127.646 1018.07 126.227C1018.93 124.809 1018.47 122.965 1017.05 122.109L1013.95 127.245ZM1025.38 127.381C1024 126.465 1022.14 126.843 1021.22 128.224C1020.31 129.605 1020.69 131.466 1022.07 132.382L1025.38 127.381ZM1037.61 143.66C1038.91 144.689 1040.8 144.47 1041.82 143.171C1042.85 141.872 1042.63 139.986 1041.34 138.957L1037.61 143.66ZM1048.93 145.24C1047.68 144.157 1045.78 144.296 1044.7 145.55C1043.62 146.804 1043.76 148.699 1045.01 149.781L1048.93 145.24ZM1059.01 162.933C1060.17 164.117 1062.07 164.138 1063.25 162.979C1064.44 161.82 1064.46 159.921 1063.3 158.737L1059.01 162.933ZM1070.04 165.925C1068.94 164.694 1067.04 164.594 1065.81 165.702C1064.58 166.81 1064.48 168.707 1065.58 169.939L1070.04 165.925ZM1078.35 184.728C1079.45 185.959 1081.35 186.059 1082.58 184.95C1083.81 183.842 1083.91 181.945 1082.8 180.713L1078.35 184.728ZM1089.43 187.764C1088.27 186.58 1086.37 186.561 1085.18 187.72C1084 188.88 1083.98 190.779 1085.14 191.962L1089.43 187.764ZM1099.61 205.538C1100.87 206.62 1102.76 206.478 1103.84 205.223C1104.93 203.968 1104.79 202.073 1103.53 200.992L1099.61 205.538ZM1110.99 207.145C1109.69 206.118 1107.8 206.34 1106.77 207.64C1105.75 208.94 1105.97 210.827 1107.27 211.854L1110.99 207.145ZM1123.35 223.48C1124.73 224.393 1126.59 224.012 1127.51 222.629C1128.42 221.247 1128.04 219.386 1126.66 218.473L1123.35 223.48ZM1134.84 223.627C1133.42 222.774 1131.57 223.233 1130.72 224.654C1129.87 226.074 1130.33 227.917 1131.75 228.77L1134.84 223.627ZM1149.17 238.257C1150.66 238.987 1152.46 238.373 1153.19 236.885C1153.92 235.398 1153.3 233.601 1151.82 232.871L1149.17 238.257ZM1160.59 236.945C1159.07 236.279 1157.3 236.968 1156.63 238.485C1155.97 240.002 1156.66 241.772 1158.17 242.438L1160.59 236.945ZM1176.66 249.64C1178.23 250.176 1179.94 249.339 1180.47 247.771C1181.01 246.203 1180.17 244.498 1178.6 243.962L1176.66 249.64ZM1187.82 246.894C1186.23 246.425 1184.56 247.333 1184.09 248.922C1183.62 250.511 1184.53 252.18 1186.12 252.649L1187.82 246.894ZM1205.37 257.458C1206.99 257.792 1208.58 256.746 1208.91 255.123C1209.24 253.5 1208.2 251.914 1206.58 251.581L1205.37 257.458ZM1216.09 253.328C1214.45 253.063 1212.91 254.174 1212.65 255.809C1212.38 257.445 1213.49 258.985 1215.13 259.25L1216.09 253.328ZM1234.83 261.595C1236.48 261.721 1237.92 260.484 1238.05 258.832C1238.18 257.18 1236.94 255.738 1235.29 255.612L1234.83 261.595ZM1244.94 256.145C1243.29 256.089 1241.9 257.385 1241.84 259.041C1241.78 260.697 1243.08 262.085 1244.74 262.142L1244.94 256.145ZM1264.58 261.98C1266.23 261.897 1267.51 260.488 1267.42 258.833C1267.34 257.178 1265.93 255.905 1264.28 255.988L1264.58 261.98ZM1273.92 255.297C1272.27 255.45 1271.06 256.912 1271.21 258.562C1271.36 260.211 1272.83 261.424 1274.48 261.271L1273.92 255.297ZM1294.14 258.598C1295.77 258.305 1296.85 256.746 1296.56 255.115C1296.27 253.484 1294.71 252.4 1293.08 252.692L1294.14 258.598ZM1302.56 250.783C1300.94 251.144 1299.92 252.748 1300.28 254.365C1300.64 255.982 1302.25 257 1303.87 256.638L1302.56 250.783ZM1323.03 251.489C1324.61 250.991 1325.49 249.307 1324.99 247.727C1324.49 246.146 1322.81 245.268 1321.23 245.766L1323.03 251.489ZM1330.39 242.667C1328.83 243.231 1328.02 244.952 1328.59 246.509C1329.15 248.067 1330.87 248.873 1332.43 248.309L1330.39 242.667ZM1350.79 240.769C1352.29 240.075 1352.95 238.293 1352.25 236.788C1351.56 235.284 1349.78 234.626 1348.27 235.32L1350.79 240.769ZM1356.97 231.086C1355.5 231.843 1354.91 233.651 1355.67 235.125C1356.43 236.599 1358.23 237.181 1359.71 236.425L1356.97 231.086ZM1377.26 226.707C1378.7 225.89 1379.21 224.059 1378.39 222.618C1377.57 221.177 1375.74 220.671 1374.3 221.488L1377.26 226.707ZM1383.12 216.486C1381.68 217.304 1381.18 219.135 1381.99 220.576C1382.81 222.017 1384.64 222.523 1386.08 221.705L1383.12 216.486ZM1403.72 211.703C1405.16 210.885 1405.67 209.055 1404.85 207.613C1404.03 206.172 1402.2 205.666 1400.76 206.484L1403.72 211.703ZM1409.58 201.483C1408.14 202.3 1407.63 204.131 1408.45 205.572C1409.27 207.013 1411.1 207.519 1412.54 206.702L1409.58 201.483ZM1430.18 196.7C1431.62 195.882 1432.12 194.051 1431.3 192.61C1430.49 191.169 1428.66 190.663 1427.22 191.481L1430.18 196.7ZM1436.03 186.479C1434.59 187.297 1434.09 189.128 1434.9 190.569C1435.72 192.01 1437.55 192.516 1438.99 191.698L1436.03 186.479ZM1456.63 181.696C1458.07 180.878 1458.58 179.047 1457.76 177.606C1456.94 176.165 1455.11 175.659 1453.67 176.477L1456.63 181.696ZM1462.49 171.476C1461.05 172.293 1460.54 174.124 1461.36 175.565C1462.18 177.006 1464.01 177.512 1465.45 176.695L1462.49 171.476ZM1483.09 166.692C1484.53 165.874 1485.03 164.044 1484.21 162.602C1483.4 161.161 1481.57 160.656 1480.12 161.473L1483.09 166.692ZM1488.94 156.471C1487.5 157.289 1487 159.12 1487.81 160.561C1488.63 162.002 1490.46 162.508 1491.9 161.69L1488.94 156.471ZM1509.54 151.685C1510.98 150.868 1511.49 149.037 1510.67 147.595C1509.85 146.154 1508.02 145.649 1506.58 146.466L1509.54 151.685ZM1515.4 141.463C1513.96 142.281 1513.45 144.112 1514.27 145.553C1515.09 146.994 1516.92 147.5 1518.36 146.682L1515.4 141.463ZM1536 136.674C1537.44 135.856 1537.94 134.025 1537.12 132.584C1536.31 131.143 1534.48 130.638 1533.03 131.456L1536 136.674ZM1541.85 126.451C1540.41 127.269 1539.91 129.1 1540.73 130.541C1541.54 131.982 1543.37 132.487 1544.82 131.669L1541.85 126.451ZM1562.45 121.661C1563.89 120.843 1564.4 119.012 1563.58 117.571C1562.76 116.13 1560.93 115.625 1559.49 116.443L1562.45 121.661ZM1568.3 111.438C1566.86 112.256 1566.36 114.087 1567.18 115.528C1567.99 116.969 1569.82 117.474 1571.27 116.656L1568.3 111.438ZM1588.9 106.646C1590.34 105.828 1590.84 103.997 1590.03 102.556C1589.21 101.115 1587.38 100.61 1585.94 101.428L1588.9 106.646ZM1594.75 96.4222C1593.31 97.2404 1592.81 99.0716 1593.62 100.512C1594.44 101.953 1596.27 102.458 1597.71 101.64L1594.75 96.4222ZM1615.35 91.6256C1616.79 90.8073 1617.29 88.9761 1616.47 87.5354C1615.66 86.0947 1613.82 85.5901 1612.38 86.4084L1615.35 91.6256ZM1621.2 81.4004C1619.76 82.2188 1619.26 84.05 1620.07 85.4907C1620.89 86.9314 1622.72 87.4358 1624.16 86.6175L1621.2 81.4004ZM-129 253.5L-127.638 256.173L-118.922 251.733L-120.284 249.06L-121.646 246.387L-130.362 250.827L-129 253.5ZM-111.568 244.62L-110.206 247.293L-92.7742 238.412L-94.136 235.739L-95.4978 233.066L-112.93 241.946L-111.568 244.62ZM-85.42 231.299L-84.0582 233.972L-66.6262 225.092L-67.988 222.418L-69.3498 219.745L-86.7818 228.626L-85.42 231.299ZM-59.272 217.978L-57.9102 220.651L-40.4782 211.771L-41.84 209.098L-43.2018 206.425L-60.6338 215.305L-59.272 217.978ZM-33.124 204.658L-31.7623 207.331L-14.3303 198.45L-15.692 195.777L-17.0538 193.104L-34.4858 201.984L-33.124 204.658ZM-6.97604 191.337L-5.61427 194.01L11.8177 185.13L10.456 182.456L9.09418 179.783L-8.33781 188.664L-6.97604 191.337ZM19.172 178.016L20.5337 180.689L37.9657 171.809L36.6039 169.136L35.2422 166.463L17.8102 175.343L19.172 178.016ZM45.3199 164.695L46.6817 167.369L64.1137 158.488L62.7519 155.815L61.3902 153.142L43.9582 162.022L45.3199 164.695ZM71.4679 151.375L72.8297 154.048L90.2617 145.167L88.8999 142.494L87.5381 139.821L70.1062 148.702L71.4679 151.375ZM97.6159 138.054L98.9777 140.727L116.41 131.847L115.048 129.174L113.686 126.501L96.2542 135.381L97.6159 138.054ZM123.764 124.733L125.126 127.407L133.842 122.966L132.48 120.293L131.118 117.62L122.402 122.06L123.764 124.733ZM132.48 120.293L133.842 122.966C136.799 121.46 139.782 120.059 142.787 118.762L141.598 116.008L140.409 113.253C137.287 114.601 134.189 116.056 131.118 117.62L132.48 120.293ZM150.965 112.317L151.974 115.142C158.236 112.905 164.572 111.101 170.945 109.72L170.31 106.788L169.674 103.856C163.049 105.292 156.463 107.167 149.956 109.492L150.965 112.317ZM180.214 104.976L180.657 107.943C187.205 106.964 193.773 106.42 200.32 106.299L200.265 103.3L200.209 100.3C193.404 100.426 186.577 100.991 179.77 102.009L180.214 104.976ZM210.331 103.439L210.193 106.436C216.787 106.741 223.339 107.472 229.808 108.617L230.33 105.663L230.853 102.709C224.132 101.519 217.323 100.759 210.47 100.442L210.331 103.439ZM240.182 107.735L239.47 110.649C245.868 112.211 252.161 114.182 258.306 116.55L259.384 113.751L260.463 110.951C254.078 108.491 247.54 106.443 240.893 104.82L240.182 107.735ZM268.657 117.67L267.401 120.395C273.366 123.146 279.165 126.284 284.754 129.796L286.35 127.255L287.946 124.715C282.137 121.065 276.112 117.804 269.913 114.946L268.657 117.67ZM294.697 132.884L292.94 135.316C298.247 139.151 303.33 143.345 308.15 147.886L310.207 145.702L312.264 143.518C307.254 138.799 301.97 134.439 296.454 130.453L294.697 132.884ZM317.307 152.841L315.112 154.886C319.557 159.657 323.732 164.753 327.598 170.163L330.039 168.419L332.479 166.675C328.462 161.053 324.123 155.755 319.501 150.796L317.307 152.841ZM335.625 176.795L333.077 178.379C334.805 181.158 336.455 184.011 338.024 186.935L340.668 185.517L343.311 184.099C341.682 181.062 339.968 178.099 338.173 175.211L335.625 176.795ZM340.668 185.517L338.024 186.935C339.692 190.044 341.449 193.076 343.289 196.027L345.835 194.44L348.381 192.853C346.609 190.011 344.918 187.093 343.311 184.099L340.668 185.517ZM351.571 203L349.135 204.751C353.265 210.496 357.73 215.897 362.488 220.942L364.67 218.884L366.853 216.826C362.277 211.973 357.981 206.777 354.007 201.248L351.571 203ZM371.986 226.141L369.945 228.34C375.11 233.133 380.558 237.545 386.246 241.563L387.977 239.113L389.708 236.663C384.236 232.797 378.994 228.552 374.026 223.942L371.986 226.141ZM396.585 244.776L395.02 247.335C401.01 250.998 407.222 254.251 413.609 257.079L414.824 254.336L416.038 251.593C409.891 248.871 403.914 245.741 398.15 242.217L396.585 244.776ZM424.376 258.196L423.344 261.013C429.919 263.422 436.648 265.396 443.482 266.923L444.136 263.995L444.79 261.068C438.212 259.598 431.736 257.697 425.408 255.379L424.376 258.196ZM454.259 265.91L453.798 268.875C460.701 269.947 467.685 270.568 474.705 270.723L474.772 267.724L474.838 264.725C468.084 264.575 461.362 263.978 454.719 262.946L454.259 265.91ZM485.074 267.611L485.207 270.608C492.164 270.301 499.133 269.533 506.068 268.292L505.54 265.339L505.011 262.386C498.34 263.58 491.635 264.318 484.942 264.614L485.074 267.611ZM515.617 263.187L516.341 266.098C523.07 264.424 529.746 262.293 536.326 259.691L535.223 256.901L534.12 254.112C527.789 256.615 521.366 258.665 514.893 260.275L515.617 263.187ZM544.675 252.799L545.959 255.511C549.103 254.022 552.219 252.421 555.303 250.706L553.845 248.084L552.387 245.462C549.417 247.113 546.417 248.655 543.391 250.088L544.675 252.799ZM553.845 248.084L555.303 250.706L563.8 245.982L562.343 243.36L560.885 240.738L552.387 245.462L553.845 248.084ZM570.841 238.635L572.298 241.257L589.294 231.808L587.836 229.186L586.378 226.564L569.383 236.013L570.841 238.635ZM596.334 224.462L597.792 227.084L614.788 217.635L613.33 215.013L611.872 212.391L594.876 221.84L596.334 224.462ZM621.828 210.288L623.285 212.91L640.281 203.461L638.823 200.839L637.365 198.217L620.37 207.666L621.828 210.288ZM647.321 196.114L648.779 198.736L665.775 189.287L664.317 186.665L662.859 184.043L645.863 193.492L647.321 196.114ZM672.815 181.941L674.272 184.563L691.268 175.114L689.81 172.492L688.352 169.87L671.357 179.319L672.815 181.941ZM698.308 167.767L699.766 170.389L716.762 160.94L715.304 158.318L713.846 155.696L696.85 165.145L698.308 167.767ZM723.802 153.594L725.259 156.216L742.255 146.766L740.797 144.144L739.34 141.522L722.344 150.972L723.802 153.594ZM749.295 139.42L750.753 142.042L767.749 132.593L766.291 129.971L764.833 127.349L747.837 136.798L749.295 139.42ZM774.789 125.246L776.246 127.868L784.744 123.144L783.286 120.522L781.829 117.9L773.331 122.624L774.789 125.246ZM783.286 120.522L784.744 123.144C787.555 121.581 790.387 120.083 793.238 118.65L791.89 115.97L790.543 113.289C787.618 114.76 784.713 116.296 781.829 117.9L783.286 120.522ZM800.676 111.781L801.91 114.515C807.786 111.864 813.732 109.478 819.733 107.356L818.733 104.528L817.733 101.7C811.574 103.877 805.471 106.325 799.442 109.047L800.676 111.781ZM827.974 101.478L828.854 104.347C835.004 102.46 841.203 100.844 847.435 99.4947L846.8 96.5626L846.165 93.6305C839.77 95.015 833.407 96.6739 827.094 98.6104L827.974 101.478ZM856.352 94.7051L856.862 97.6614C863.192 96.5686 869.546 95.7476 875.907 95.1952L875.648 92.2064L875.388 89.2177C868.859 89.7847 862.338 90.6273 855.842 91.7488L856.352 94.7051ZM885.358 91.5687L885.491 94.5658C891.9 94.2801 898.307 94.2651 904.696 94.5174L904.815 91.5198L904.933 88.5221C898.377 88.2632 891.801 88.2786 885.224 88.5717L885.358 91.5687ZM914.528 92.1076L914.284 95.0977C920.67 95.6188 927.03 96.4074 933.344 97.4601L933.837 94.5009L934.33 91.5418C927.851 90.4615 921.326 89.6523 914.772 89.1176L914.528 92.1076ZM943.4 96.3018L942.783 99.2377C949.047 100.554 955.258 102.132 961.397 103.97L962.257 101.096L963.117 98.2221C956.818 96.3363 950.445 94.7164 944.017 93.3659L943.4 96.3018ZM971.518 104.082L970.538 106.917C976.581 109.006 982.545 111.351 988.41 113.948L989.625 111.205L990.839 108.461C984.82 105.796 978.7 103.39 972.499 101.246L971.518 104.082ZM998.438 115.33L997.109 118.02C1002.83 120.849 1008.45 123.925 1013.95 127.245L1015.5 124.677L1017.05 122.109C1011.41 118.701 1005.64 115.544 999.766 112.641L998.438 115.33ZM1023.72 129.881L1022.07 132.382C1027.38 135.905 1032.57 139.665 1037.61 143.66L1039.47 141.308L1041.34 138.957C1036.16 134.857 1030.84 130.997 1025.38 127.381L1023.72 129.881ZM1046.97 147.51L1045.01 149.781C1049.83 153.941 1054.5 158.326 1059.01 162.933L1061.15 160.835L1063.3 158.737C1058.67 154.008 1053.88 149.508 1048.93 145.24L1046.97 147.51ZM1067.81 167.932L1065.58 169.939C1067.72 172.311 1069.81 174.736 1071.86 177.214L1074.17 175.302L1076.48 173.39C1074.38 170.847 1072.23 168.359 1070.04 165.925L1067.81 167.932ZM1074.17 175.302L1071.86 177.214C1073.98 179.774 1076.14 182.279 1078.35 184.728L1080.58 182.721L1082.8 180.713C1080.66 178.326 1078.55 175.885 1076.48 173.39L1074.17 175.302ZM1087.28 189.863L1085.14 191.962C1089.8 196.72 1094.63 201.247 1099.61 205.538L1101.57 203.265L1103.53 200.992C1098.67 196.811 1093.97 192.4 1089.43 187.764L1087.28 189.863ZM1109.13 209.499L1107.27 211.854C1112.49 215.974 1117.85 219.851 1123.35 223.48L1125 220.977L1126.66 218.473C1121.3 214.937 1116.07 211.16 1110.99 207.145L1109.13 209.499ZM1133.29 226.199L1131.75 228.77C1137.44 232.188 1143.25 235.352 1149.17 238.257L1150.5 235.564L1151.82 232.871C1146.05 230.039 1140.38 226.957 1134.84 223.627L1133.29 226.199ZM1159.38 239.691L1158.17 242.438C1164.24 245.103 1170.41 247.505 1176.66 249.64L1177.63 246.801L1178.6 243.962C1172.51 241.881 1166.5 239.541 1160.59 236.945L1159.38 239.691ZM1186.97 249.772L1186.12 252.649C1192.47 254.523 1198.89 256.127 1205.37 257.458L1205.97 254.519L1206.58 251.581C1200.26 250.284 1194 248.72 1187.82 246.894L1186.97 249.772ZM1215.61 256.289L1215.13 259.25C1221.65 260.308 1228.23 261.09 1234.83 261.595L1235.06 258.603L1235.29 255.612C1228.85 255.12 1222.45 254.358 1216.09 253.328L1215.61 256.289ZM1244.84 259.144L1244.74 262.142C1251.34 262.367 1257.96 262.314 1264.58 261.98L1264.43 258.984L1264.28 255.988C1257.83 256.313 1251.37 256.365 1244.94 256.145L1244.84 259.144ZM1274.2 258.284L1274.48 261.271C1281.04 260.66 1287.6 259.77 1294.14 258.598L1293.61 255.645L1293.08 252.692C1286.71 253.834 1280.32 254.701 1273.92 255.297L1274.2 258.284ZM1303.21 253.71L1303.87 256.638C1310.29 255.2 1316.69 253.485 1323.03 251.489L1322.13 248.627L1321.23 245.766C1315.05 247.711 1308.82 249.382 1302.56 250.783L1303.21 253.71ZM1331.41 245.488L1332.43 248.309C1338.61 246.07 1344.74 243.557 1350.79 240.769L1349.53 238.045L1348.27 235.32C1342.38 238.038 1336.41 240.486 1330.39 242.667L1331.41 245.488ZM1358.34 233.756L1359.71 236.425C1362.64 234.92 1365.55 233.349 1368.44 231.71L1366.96 229.1L1365.48 226.491C1362.67 228.088 1359.83 229.62 1356.97 231.086L1358.34 233.756ZM1366.96 229.1L1368.44 231.71C1371.39 230.039 1374.33 228.372 1377.26 226.707L1375.78 224.098L1374.3 221.488C1371.37 223.152 1368.43 224.82 1365.48 226.491L1366.96 229.1ZM1384.6 219.096L1386.08 221.705C1391.98 218.363 1397.85 215.03 1403.72 211.703L1402.24 209.093L1400.76 206.484C1394.89 209.811 1389.02 213.143 1383.12 216.486L1384.6 219.096ZM1411.06 204.092L1412.54 206.702C1418.42 203.366 1424.3 200.033 1430.18 196.7L1428.7 194.09L1427.22 191.481C1421.34 194.814 1415.46 198.147 1409.58 201.483L1411.06 204.092ZM1437.51 189.089L1438.99 191.698C1444.86 188.369 1450.74 185.036 1456.63 181.696L1455.15 179.086L1453.67 176.477C1447.78 179.817 1441.9 183.15 1436.03 186.479L1437.51 189.089ZM1463.97 174.085L1465.45 176.695C1471.31 173.372 1477.18 170.039 1483.09 166.692L1481.6 164.082L1480.12 161.473C1474.22 164.82 1468.35 168.153 1462.49 171.476L1463.97 174.085ZM1490.42 159.081L1491.9 161.69C1497.75 158.373 1503.63 155.039 1509.54 151.685L1508.06 149.076L1506.58 146.466C1500.67 149.821 1494.79 153.154 1488.94 156.471L1490.42 159.081ZM1516.88 144.073L1518.36 146.682C1524.2 143.369 1530.07 140.034 1536 136.674L1534.52 134.065L1533.03 131.456C1527.11 134.816 1521.24 138.151 1515.4 141.463L1516.88 144.073ZM1543.33 129.06L1544.82 131.669C1550.64 128.361 1556.52 125.026 1562.45 121.661L1560.97 119.052L1559.49 116.443C1553.56 119.808 1547.68 123.143 1541.85 126.451L1543.33 129.06ZM1569.78 114.047L1571.27 116.656C1577.09 113.351 1582.96 110.015 1588.9 106.646L1587.42 104.037L1585.94 101.428C1580 104.798 1574.13 108.133 1568.3 111.438L1569.78 114.047ZM1596.23 99.031L1597.71 101.64C1603.53 98.3363 1609.41 94.9993 1615.35 91.6256L1613.87 89.017L1612.38 86.4084C1606.44 89.782 1600.57 93.1189 1594.75 96.4222L1596.23 99.031ZM1622.68 84.009L1624.16 86.6175C1627.09 84.957 1630.03 83.2875 1632.98 81.6085L1631.5 79L1630.02 76.3915C1627.06 78.0705 1624.12 79.74 1621.2 81.4004L1622.68 84.009Z" fill="#C75454"/>
<path d="M1697.12 103.374L1707.22 96.2635L1701.31 39.7537L1727.36 21.4014C1727.36 21.4014 1742.5 10.7356 1737.51 3.64467C1732.51 -3.45136 1717.37 7.21444 1717.37 7.21444L1691.31 25.5667L1640.1 0.974025L1630 8.08456L1671.12 39.7878L1653.02 52.5405L1634.51 50.4012L1624.42 57.5117L1644.64 69.0529L1648.7 91.9832L1658.79 84.8726L1663.01 66.7275L1681.12 53.9748L1697.12 103.374Z" fill="#C75454"/>
</svg>
