<!-- icon666.com - MILLIONS OF FREE VECTOR ICONS --><svg viewBox="0 0 511.99988 511" xmlns="http://www.w3.org/2000/svg"><path d="m181.511719 374.441406 40.304687 82.933594c6.324219 13.015625 3.707032 28.609375-6.527344 38.839844-5.414062 5.417968-14.195312 5.417968-19.613281 0l-67.972656-67.96875zm0 0" fill="#6299c9" style="fill: rgb(202, 99, 99);"></path><path d="m386.535156 381.890625 58.597656 58.597656 52.265626-52.269531c9.488281-9.484375 9.488281-24.867188 0-34.355469l-24.238282-24.238281c-9.488281-9.488281-24.871094-9.488281-34.355468 0zm0 0" fill="#fde77c" style="fill: rgb(253, 124, 229);"></path><path d="m481.355469 337.816406-8.195313-8.195312c-9.488281-9.488282-24.871094-9.488282-34.359375 0l-52.265625 52.265625 39.011719 39.015625c6.976563-29.238282 30.472656-68.636719 55.808594-83.085938zm0 0" fill="#fab25f" style="fill: rgb(251, 96, 142);"></path><path d="m473.160156 329.621094 24.238282 24.242187c9.488281 9.484375 9.488281 24.867188 0 34.355469l-3.945313 3.949219-58.597656-58.597657 3.945312-3.949218c9.488281-9.488282 24.871094-9.488282 34.359375 0zm0 0" fill="#fcf2d0"></path><path d="m264.34375 336.351562 160.648438 160.648438c10.664062 10.664062 27.960937 10.664062 38.625 0 18.132812-18.132812 21.179687-46.449219 7.324218-68.027344l-117.019531-182.199218zm0 0" fill="#91d1e0" style="fill: rgb(224, 144, 144);"></path><path d="m353.921875 246.773438 58.664063 91.34375c-4.9375 3.78125-10.050782 7.390624-15.339844 10.800781l-73.167969 47.167969-59.738281-59.738282zm0 0" fill="#6299c9" style="fill: rgb(202, 99, 99);"></path><path d="m481.355469 337.816406-8.195313-8.195312c-9.488281-9.488282-24.871094-9.488282-34.359375 0l-3.945312 3.949218 23.871093 23.871094c7.074219-8.25 14.761719-15.136718 22.628907-19.625zm0 0" fill="#f6e3a3"></path><path d="m138.058594 330.988281-82.933594-40.304687c-13.015625-6.324219-28.609375-3.707032-38.84375 6.527344-5.414062 5.414062-5.414062 14.195312 0 19.613281l67.972656 67.96875zm0 0" fill="#6299c9" style="fill: rgb(202, 99, 99);"></path><path d="m130.609375 125.964844-58.597656-58.597656 52.269531-52.265626c9.484375-9.488281 24.867188-9.488281 34.355469 0l24.238281 24.238282c9.488281 9.488281 9.488281 24.871094 0 34.359375zm0 0" fill="#fde77c" style="fill: rgb(253, 124, 229);"></path><path d="m166.832031 23.292969-8.195312-8.191407c-9.488281-9.488281-24.871094-9.488281-34.355469 0l-52.269531 52.265626 39.015625 39.011718c6.972656-29.234375 30.46875-68.632812 55.804687-83.085937zm0 0" fill="#fab25f" style="fill: rgb(251, 96, 142);"></path><path d="m182.878906 39.339844-24.242187-24.238282c-9.488281-9.488281-24.867188-9.488281-34.355469 0l-3.949219 3.945313 58.597657 58.597656 3.949218-3.945312c9.484375-9.488281 9.484375-24.871094 0-34.359375zm0 0" fill="#fcf2d0"></path><path d="m176.148438 248.15625-160.648438-160.648438c-10.664062-10.667968-10.664062-27.960937 0-38.625 18.132812-18.132812 46.449219-21.183593 68.027344-7.324218l182.199218 117.019531zm0 0" fill="#91d1e0" style="fill: rgb(224, 144, 144);"></path><path d="m95.136719 49.015625-11.609375-7.457031c-21.578125-13.855469-49.894532-10.808594-68.027344 7.324218-10.664062 10.664063-10.664062 27.957032 0 38.625l36.503906 36.503907c1.210938-24.566407 22.359375-63.960938 43.132813-74.996094zm0 0" fill="#e889c2" style="fill: rgb(231, 140, 232);"></path><path d="m463.484375 417.363281 7.457031 11.609375c13.855469 21.578125 10.808594 49.894532-7.324218 68.027344-10.664063 10.664062-27.960938 10.664062-38.625 0l-36.503907-36.507812c24.566407-1.210938 63.960938-22.355469 74.996094-43.128907zm0 0" fill="#e889c2" style="fill: rgb(231, 140, 232);"></path><path d="m265.726562 158.578125-91.34375-58.664063c-3.78125 4.9375-7.390624 10.050782-10.800781 15.339844l-47.167969 73.167969 59.734376 59.738281zm0 0" fill="#6299c9" style="fill: rgb(202, 99, 99);"></path><path d="m461.039062 109.085938c-6.605468-28.652344-28.976562-51.019532-57.625-57.628907-80.148437-18.480469-163.28125 15.28125-207.851562 84.414063l-121.117188 187.871094c-21.097656 32.730468-16.503906 75.746093 11.03125 103.28125 27.535157 27.535156 70.550782 32.128906 103.28125 11.03125l187.871094-121.117188c69.132813-44.570312 102.894532-127.703125 84.410156-207.851562zm0 0" fill="#91d1e0" style="fill: rgb(224, 144, 144);"></path><path d="m166.832031 23.292969-8.195312-8.191407c-9.488281-9.488281-24.871094-9.488281-34.355469 0l-3.949219 3.945313 23.875 23.871094c7.074219-8.25 14.757813-15.136719 22.625-19.625zm0 0" fill="#f6e3a3"></path><path d="m187.925781 324.574219c-8.003906-8.003907-20.976562-8.003907-28.980469 0l-38.019531 38.023437c-8.003906 8-8.003906 20.976563 0 28.976563 8 8.003906 20.976563 8.003906 28.980469 0l38.019531-38.019531c8.003907-8.003907 8.003907-20.976563 0-28.980469zm0 0" fill="#6299c9" style="fill: rgb(202, 99, 99);"></path><g fill="#fff"><path d="m415.632812 198.179688c-1.105468 0-2.222656-.140626-3.339843-.433594-7-1.839844-11.183594-9.003906-9.34375-16.003906 5.386719-20.507813 6.515625-49.613282-8.03125-64.160157-14.546875-14.542969-43.65625-13.414062-64.160157-8.03125-7 1.84375-14.164062-2.34375-16.003906-9.34375-1.835937-7 2.347656-14.164062 9.347656-16.003906 54.746094-14.382813 82.230469 7.730469 89.347657 14.847656 7.121093 7.121094 29.230469 34.601563 14.847656 89.351563-1.546875 5.882812-6.855469 9.777344-12.664063 9.777344zm0 0" fill="#fff"></path><path d="m265.402344 146.3125c-3.355469 0-6.707032-1.28125-9.265625-3.839844l-9.730469-9.730468c-5.117188-5.117188-5.117188-13.414063 0-18.53125 5.117188-5.117188 13.414062-5.117188 18.535156 0l9.730469 9.730468c5.117187 5.117188 5.117187 13.414063 0 18.53125-2.5625 2.558594-5.914063 3.839844-9.269531 3.839844zm0 0" fill="#fff"></path><path d="m229.398438 184.707031c-3.355469 0-6.707032-1.277343-9.269532-3.835937l-9.726562-9.730469c-5.121094-5.117187-5.117188-13.414063 0-18.535156 5.117187-5.117188 13.414062-5.117188 18.53125 0l9.730468 9.730469c5.117188 5.121093 5.117188 13.417968 0 18.535156-2.558593 2.558594-5.914062 3.835937-9.265624 3.835937zm0 0" fill="#fff"></path><path d="m200.675781 230.386719c-3.355469 0-6.707031-1.28125-9.265625-3.839844l-9.730468-9.726563c-5.117188-5.121093-5.117188-13.417968 0-18.535156 5.117187-5.117187 13.417968-5.117187 18.535156 0l9.726562 9.730469c5.117188 5.117187 5.117188 13.417969 0 18.535156-2.558594 2.558594-5.914062 3.835938-9.265625 3.835938zm0 0" fill="#fff"></path><path d="m171.425781 275.539062c-3.355469 0-6.707031-1.28125-9.269531-3.839843l-9.730469-9.730469c-5.117187-5.117188-5.117187-13.414062.003907-18.53125 5.117187-5.121094 13.414062-5.121094 18.53125 0l9.730468 9.730469c5.117188 5.117187 5.117188 13.414062 0 18.53125-2.558594 2.558593-5.914062 3.839843-9.265625 3.839843zm0 0" fill="#fff"></path><path d="m389.023438 269.929688c-3.355469 0-6.707032-1.277344-9.269532-3.835938l-9.726562-9.730469c-5.121094-5.117187-5.117188-13.414062 0-18.535156 5.117187-5.117187 13.414062-5.117187 18.53125 0l9.730468 9.730469c5.117188 5.117187 5.117188 13.417968 0 18.535156-2.558593 2.558594-5.914062 3.835938-9.265624 3.835938zm0 0" fill="#fff"></path><path d="m350.625 305.9375c-3.351562 0-6.707031-1.28125-9.265625-3.839844l-9.730469-9.730468c-5.117187-5.117188-5.117187-13.414063 0-18.53125 5.117188-5.117188 13.417969-5.117188 18.535156 0l9.726563 9.730468c5.121094 5.117188 5.121094 13.414063 0 18.53125-2.558594 2.558594-5.910156 3.839844-9.265625 3.839844zm0 0" fill="#fff"></path><path d="m304.945312 334.65625c-3.351562 0-6.707031-1.277344-9.265624-3.835938l-9.726563-9.730468c-5.117187-5.117188-5.117187-13.414063 0-18.53125 5.117187-5.117188 13.414063-5.117188 18.53125 0l9.730469 9.726562c5.117187 5.121094 5.117187 13.414063 0 18.535156-2.5625 2.558594-5.914063 3.835938-9.269532 3.835938zm0 0" fill="#fff"></path><path d="m259.796875 363.910156c-3.355469 0-6.707031-1.28125-9.265625-3.839844l-9.730469-9.726562c-5.117187-5.121094-5.117187-13.417969 0-18.535156 5.117188-5.117188 13.414063-5.117188 18.535157 0l9.726562 9.730468c5.117188 5.117188 5.117188 13.414063 0 18.53125-2.558594 2.558594-5.910156 3.839844-9.265625 3.839844zm0 0" fill="#fff"></path></g><path d="m153.640625 319.269531-38.019531 38.023438c-10.914063 10.914062-10.914063 28.671875 0 39.585937 5.457031 5.457032 12.625 8.1875 19.792968 8.1875 7.167969 0 14.335938-2.730468 19.792969-8.1875l38.023438-38.023437c10.910156-10.910157 10.910156-28.671875 0-39.585938-10.914063-10.910156-28.675781-10.910156-39.589844 0zm28.980469 28.980469-38.019532 38.023438c-5.066406 5.0625-13.308593 5.066406-18.375 0-5.0625-5.066407-5.0625-13.308594 0-18.375l38.023438-38.019532c2.53125-2.535156 5.859375-3.800781 9.183594-3.800781 3.328125 0 6.65625 1.265625 9.1875 3.800781 5.066406 5.066406 5.066406 13.308594 0 18.371094zm320.082031.308594-24.238281-24.238282c-12.398438-12.398437-32.570313-12.398437-44.964844 0l-12.703125 12.699219-18.921875-29.457031c24.925781-21.058594 44.324219-47.757812 56.761719-78.386719 15.769531-38.828125 19.128906-80.9375 9.710937-121.777343-7.199218-31.222657-32.023437-56.046876-63.246094-63.246094-23.933593-5.519532-48.371093-6.652344-72.640624-3.371094-4.105469.554688-6.980469 4.332031-6.425782 8.4375.554688 4.105469 4.332032 6.980469 8.4375 6.429688 22.46875-3.039063 45.097656-1.988282 67.257813 3.121093 25.671875 5.917969 46.082031 26.332031 52 52 8.722656 37.816407 5.613281 76.808594-8.988281 112.765625-12.296876 30.273438-31.9375 56.410156-57.304688 76.464844-.101562.078125-.203125.15625-.300781.238281-4.667969 3.671875-9.527344 7.144531-14.570313 10.398438l-80.109375 51.640625c-.015625.011718-.03125.023437-.046875.03125l-107.714844 69.441406c-14.394531 9.28125-31.699218 13.394531-48.726562 11.570312-17.03125-1.816406-33.078125-9.488281-45.1875-21.601562-12.109375-12.109375-19.78125-28.15625-21.597656-45.183594-1.820313-17.03125 2.289062-34.335937 11.566406-48.730468l69.445312-107.714844c.007813-.015625.015626-.027344.023438-.042969l51.648438-80.113281c23.300781-36.140625 58.65625-63.390625 99.550781-76.730469 3.9375-1.28125 6.089843-5.515625 4.804687-9.453125s-5.515625-6.085938-9.453125-4.804688c-35.777343 11.664063-67.621093 33.191407-91.804687 61.695313l-29.484375-18.9375 12.699219-12.703125c12.398437-12.394531 12.398437-32.566406 0-44.964844l-24.238282-24.238281c-12.398437-12.394531-32.570312-12.394531-44.964844 0l-27.777343 27.777344-3.621094-2.324219c-11.871094-7.625-26.132813-10.992188-40.160156-9.484375-14.027344 1.511719-27.246094 7.835937-37.222657 17.8125-6.574218 6.578125-10.195312 15.316406-10.195312 24.617187 0 9.296876 3.621094 18.039063 10.195312 24.613282l124.160157 124.160156-50.992188 79.097656-24.957031-12.128906c-15.882812-7.71875-34.941406-4.515625-47.425781 7.96875-8.332031 8.332031-8.332031 21.886719 0 30.21875l42.875 42.875c-.179688 4.363281-.058594 8.753906.410156 13.125 2.183594 20.429688 11.382813 39.675781 25.90625 54.203125 14.527344 14.523437 33.777344 23.726563 54.203125 25.90625 3.164062.335937 6.335938.503906 9.503906.503906 1.214844 0 2.425782-.03125 3.636719-.078125l42.859375 42.859375c4.164062 4.164063 9.636719 6.246094 15.109375 6.246094s10.941406-2.082031 15.109375-6.246094c4.457031-4.460937 7.890625-9.96875 9.921875-15.929687 1.335937-3.921875-.761719-8.183594-4.679687-9.519532-3.925782-1.335937-8.183594.761719-9.519532 4.683594-1.3125 3.851563-3.445312 7.269532-6.332031 10.15625-2.480469 2.484375-6.519531 2.484375-9.003906 0l-34.9375-34.9375c9.445312-2.386718 18.515625-6.289062 26.777343-11.617187l10.910157-7.035157 7.617187 15.671876c1.296875 2.667968 3.96875 4.222656 6.75 4.222656 1.101563 0 2.21875-.242188 3.273438-.757813 3.726562-1.808593 5.28125-6.296875 3.46875-10.023437l-8.410156-17.300782 79.097656-50.992187 124.160156 124.160156c6.785156 6.785157 15.703125 10.179688 24.617188 10.179688 8.914062 0 17.828124-3.394531 24.613281-10.179688 9.976562-9.976562 16.304687-23.195312 17.8125-37.222656 1.511719-14.027344-1.855469-28.289063-9.480469-40.160156l-2.324219-3.621094 27.777344-27.777344c12.394531-12.394531 12.394531-32.566406 0-44.960937zm-373.121094-328.15625c6.550781-6.546875 17.203125-6.546875 23.753907 0l24.238281 24.238281c6.546875 6.550781 6.546875 17.203125 0 23.753906l-15.011719 15.011719-58.445312-37.535156zm-108.78125 61.800781c-3.742187-3.742187-5.800781-8.714844-5.800781-14.007813 0-5.292968 2.058594-10.269531 5.800781-14.007812 15.523438-15.523438 40.199219-18.179688 58.671875-6.316406l2.308594 1.480468c-15.660156 13.734376-29.226562 38.351563-34.714844 59.113282zm38.976563 38.972656c2.511718-21.753906 19.480468-51.988281 35.296875-63.285156l64.378906 41.347656c.011719.007813.023437.015625.039063.023438l36.167968 23.230469c-2.214844 3.042968-4.355468 6.144531-6.402344 9.316406l-46.585937 72.261718zm-3.242188 225.292969-34.949218-34.949219c-2.480469-2.480469-2.480469-6.523437 0-9.003906 7.96875-7.96875 20.128906-10.011719 30.261718-5.085937l23.328125 11.335937-7.03125 10.914063c-5.332031 8.265624-9.222656 17.339843-11.609375 26.789062zm251.894532 23.359375 72.261718-46.585937c3.179688-2.050782 6.285156-4.183594 9.328125-6.386719l23.222657 36.164062c.007812.007813.011718.015625.019531.023438l41.351562 64.382812c-11.300781 15.816407-41.53125 32.78125-63.289062 35.296875zm149.882812 121.867187c-7.722656 7.726563-20.292969 7.726563-28.015625 0l-26.261719-26.261718c20.761719-5.488282 45.378906-19.054688 59.113282-34.714844l1.480468 2.308594c11.863282 18.472656 9.207032 43.144531-6.316406 58.667968zm33.78125-108.78125-25.464844 25.46875-37.535156-58.445312 15.011719-15.011719c6.546875-6.550781 17.203125-6.550781 23.75 0l24.238281 24.238281c6.550781 6.550782 6.550781 17.203126 0 23.75zm0 0" fill="#000000"></path></svg>